<?xml version="1.0" encoding="UTF-8"?>
<svg id="Layer_1" xmlns="http://www.w3.org/2000/svg" version="1.1" viewBox="0 0 283.2 151">
  <!-- Generator: Adobe Illustrator 29.0.1, SVG Export Plug-In . SVG Version: 2.1.0 Build 192)  -->
  <defs>
    <style>
      .st0 {
        fill: #80f;
      }
    </style>
  </defs>
  <path class="st0" d="M283.1,0c-.2,3,.2,6,0,9-1.5,18.8-7.5,46.1-18.6,61.9-20.3,29.1-73.9,38.8-106.4,29.1-20.6,51.2-70,55.4-118.1,44.5-9-2-17.6-5.1-26.5-7.5-1.2,1.7,1.2,3.5,1.4,5.6s-.1,5.7,0,8.5h-3c-.2-2.4.3-5.1,0-7.5-1-6.3-11.8-11.2-12-12.1-.9-5.2,8-1.8,12.3-2.7s5.2-3.5,7.7-5.3c5.6-4.1,5.1,1.2,1.1,4.1l-9,5.5c41.4,13.9,100.9,26.1,131.4-14.1,2-2.7,11.6-17.1,11.6-19.4-15.1-6.3-27.3-16.1-31.5-32.6-9.1-35.4,30.6-36.8,40.3-10.3,5.6,15.3.5,24.4-3.1,38.5-.2,1-1.3,1.3.3,2.2,4.9,3,28.9,3,35.5,2.5,53.7-4,77.3-34,82.5-85.5s-2.5-15.1,4-14.5ZM157.1,96c7.2-15.5,10.6-42.7-7.9-51.5s-26.4,3.9-22.8,20.8c3.1,14.7,16.4,27.1,30.7,30.7Z"/>
</svg>