<?xml version="1.0" encoding="UTF-8"?>
<svg id="Layer_1" xmlns="http://www.w3.org/2000/svg" version="1.1" viewBox="0 0 74 70">
  <!-- Generator: Adobe Illustrator 29.0.1, SVG Export Plug-In . SVG Version: 2.1.0 Build 192)  -->
  <defs>
    <style>
      .st0 {
        fill: #8e45c5;
      }
    </style>
  </defs>
  <path class="st0" d="M25,0c2.1,4.4,6.8,21.6,9.5,24s3.6,1.8,4.8-.2c3.9-6.6,5.6-16.9,9.7-23.8h1c1.6,2.5,11.2,4.4,10.9,7.3s-13.5,15.5-15.3,19.7-.7,2.5-.5,4c9.8.6,19.3-2.3,29-3v14c-9.7-.9-19.2-3.6-29-3-2.9,3,15.4,19.9,16,24.5l-11,6.5h-1c-4.1-6.9-5.8-17.2-9.7-23.8s-3.1-1.8-4.8-.2c-2.7,2.4-7.4,19.6-9.5,24h-2l-11-7.5c2.5-3,18.8-20.6,16-23.5L0,42v-14c9.3,1.3,18.6,3.3,28,3l-.5-5L12,6.5,23,0h2Z"/>
</svg>