<?xml version="1.0" encoding="UTF-8"?>
<svg id="Layer_1" xmlns="http://www.w3.org/2000/svg" version="1.1" viewBox="0 0 121 24">
  <!-- Generator: Adobe Illustrator 29.0.1, SVG Export Plug-In . SVG Version: 2.1.0 Build 192)  -->
  <defs>
    <style>
      .st0 {
        fill: #652d90;
      }

      .st1 {
        fill: #fff;
      }
    </style>
  </defs>
  <g>
    <path class="st0" d="M12.3,3.3c.8,0,1.5,0,2.2.3-1-.3-2.2-.3-3.2-.3h1Z"/>
    <path class="st0" d="M14.7,3.6c.2,0,.4,0,.6.2-.2,0-.4,0-.6-.2Z"/>
    <path class="st0" d="M15.9,4.1c.2,0,.4.2.6.3-.2,0-.4-.2-.6-.3Z"/>
    <path class="st0" d="M16.7,4.5c.4.2.7.4,1.1.7-.3-.3-.7-.5-1.1-.7Z"/>
    <polygon class="st0" points="18.1 18.6 19.2 20.5 18.1 18.6 18.1 18.6"/>
    <path class="st0" d="M0,5.1v.2h0v-.2Z"/>
    <path class="st0" d="M3.9,3.8c0,0,.2-.2.3-.3,0,0-.2.2-.3.3Z"/>
    <path class="st0" d="M5.3,3.3h0c-.3,0-.5,0-.8,0,.2,0,.5,0,.8,0Z"/>
    <polygon class="st0" points="5.3 24 5.3 24 .3 24 .3 24 5.3 24"/>
    <polygon class="st0" points="5.3 20.7 5.3 20.7 .3 20.7 .3 20.7 5.3 20.7"/>
    <path class="st0" d="M16.8,23.1c-2.3,1.1-5.6.9-8.2.9v-3.3c1.8,0,4.8.2,6.5-.5l1.7,2.9Z"/>
    <path class="st0" d="M17.8,12c0,2.9-2.4,5.1-5.2,5.1h-3.9v-3.3h3.9c1,0,1.8-.8,1.8-1.8s-.8-1.8-1.8-1.8h-3.9v-3.3h3.9c2.8,0,5.2,2.2,5.2,5.1Z"/>
    <path class="st0" d="M24.4,11.7c.1,3.8-1.6,7.6-4.6,9.8-.4-.7-1.3-2.2-1.7-2.9,4.6-3.7,3.8-11.4-1.4-14.1-1.4-.8-2.8-1.1-4.4-1.2-.4,0-7.6,0-7.8,0,0,0-.2,0-.2,0h0c-1.6.9-.8,3.4,1,3.3v3.3c-2.1,0-4.2-1.3-4.9-3.3C-.2,5.7.1,1.3,0,0,3.2.2,12.7-.4,15.6.5c5,1.4,8.7,6,8.8,11.2h0Z"/>
    <path class="st0" d="M21.6,19.8c.1-.1.2-.2.3-.4-.1.1-.2.3-.3.4Z"/>
    <path class="st0" d="M22.8,18.1c0-.1.2-.3.2-.4,0,.1-.2.3-.2.4Z"/>
    <path class="st1" d="M19.1,22c-2.4,1.5-1.6.9-3.2-1.6,0-.2,0-.4.2-.5.5-.2.9-.5,1.4-.8.2-.1.4,0,.5.1l1.3,2.3c0,.1,0,.3-.1.4h0Z"/>
    <path class="st0" d="M8.1,20.7v.6h-2.3v-.6h2.3Z"/>
    <path class="st1" d="M8.1,21.8v2c0,.1-.2.2-.3.2-.2,0-2,.2-2-.2,0,0,0-2.1,0-2h2.3Z"/>
    <g>
      <path class="st0" d="M8.1,14v2.9c0,.2-.2.2-.3.2s-.2,0-.2-.2v-2.9c0-.3.5-.3.5,0Z"/>
      <path class="st0" d="M6.4,14v2.9c0,.2-.2.2-.3.2s-.2,0-.2-.2v-2.9c0-.3.5-.3.5,0Z"/>
      <path class="st0" d="M7.2,14v2.9c0,.2-.2.2-.3.2s-.2,0-.2-.2v-2.9c0-.3.5-.3.5,0Z"/>
      <path class="st0" d="M8.1,7.1v2.9c0,.2-.2.2-.3.2s-.2,0-.2-.2v-2.9c0-.3.5-.3.5,0Z"/>
      <path class="st0" d="M6.4,7.1v2.9c0,.2-.2.2-.3.2s-.2,0-.2-.2v-2.9c0-.3.5-.3.5,0Z"/>
      <path class="st0" d="M7.2,7.1v2.9c0,.2-.2.2-.3.2s-.2,0-.2-.2v-2.9c0-.3.5-.3.5,0Z"/>
    </g>
    <path class="st1" d="M7,3.9l-1.1,2.6h2.3l-1.1-2.6h0Z"/>
    <rect class="st0" y="13.8" width="5.3" height="3.3"/>
    <polygon class="st0" points="5.3 20.7 5.3 24 0 24 0 20.7 5.3 20.7"/>
    <polygon class="st0" points="5.3 20.7 5.3 24 5.3 24 5.3 20.7"/>
  </g>
  <g>
    <path class="st1" d="M41.5,8.6c-.3-.9-.8-1.7-1.5-2.3-.6-.7-1.4-1.2-2.2-1.5-.9-.4-1.8-.5-2.9-.5h-4.7v15.6h4.7c1.1,0,2-.2,2.9-.5.9-.3,1.6-.8,2.3-1.5.6-.6,1.1-1.4,1.5-2.3.3-.9.5-1.9.5-3v-.8c0-1.1-.2-2.1-.5-3ZM39,12.4c0,1.1-.2,2-.5,2.7-.3.8-.8,1.3-1.4,1.8-.6.4-1.4.6-2.3.6h-1.7V6.5h1.8c.7,0,1.2.1,1.8.3.5.2.9.6,1.3,1,.3.4.6,1,.8,1.6s.3,1.4.3,2.2v.8Z"/>
    <polygon class="st1" points="54.9 17.5 54.9 19.8 44.5 19.8 44.5 4.2 54.8 4.2 54.8 6.5 47.5 6.5 47.5 10.6 53.8 10.6 53.8 12.9 47.5 12.9 47.5 17.5 54.9 17.5"/>
    <path class="st1" d="M65.1,15.8c0-.3,0-.6-.1-.8,0-.2-.3-.5-.5-.7-.2-.2-.6-.4-1-.6-.4-.2-1-.4-1.6-.6-.7-.2-1.4-.5-2-.8-.6-.3-1.2-.6-1.7-1-.5-.4-.8-.8-1.1-1.3-.3-.5-.4-1.1-.4-1.7s.1-1.2.4-1.8c.3-.5.7-1,1.2-1.4.5-.4,1.1-.7,1.8-.9.7-.2,1.5-.3,2.3-.3s2.2.2,3,.6c.8.4,1.5,1,2,1.7.5.7.7,1.5.7,2.4h-2.9c0-.5-.1-.9-.3-1.3-.2-.4-.5-.7-.9-.9s-.9-.3-1.6-.3-1.1,0-1.5.3c-.4.2-.7.4-.9.7-.2.3-.3.7-.3,1s0,.5.2.8c.1.2.3.4.6.6.3.2.6.4,1,.5.4.2.9.3,1.4.5.9.3,1.6.5,2.3.9.6.3,1.2.7,1.6,1.1.4.4.8.9,1,1.4s.3,1.1.3,1.7-.1,1.3-.4,1.8c-.3.5-.6,1-1.1,1.4s-1.1.7-1.8.8-1.5.3-2.3.3-1.5-.1-2.3-.3-1.4-.5-2-.9c-.6-.4-1.1-.9-1.4-1.6-.4-.6-.5-1.4-.5-2.2h3c0,.5,0,.9.2,1.3.2.3.4.6.7.8.3.2.6.4,1,.5.4.1.8.2,1.3.2s1.1,0,1.5-.3c.4-.2.7-.4.9-.7s.3-.6.3-1Z"/>
    <path class="st1" d="M73.5,4.2v15.6h-3V4.2h3Z"/>
    <path class="st1" d="M89.2,4.2v15.6h-3l-6.6-10.9v10.9h-3V4.2h3l6.7,10.9V4.2h2.9Z"/>
    <polygon class="st1" points="102.6 17.5 102.6 19.8 92.2 19.8 92.2 4.2 102.6 4.2 102.6 6.5 95.2 6.5 95.2 10.6 101.5 10.6 101.5 12.9 95.2 12.9 95.2 17.5 102.6 17.5"/>
    <path class="st1" d="M113.2,13.2c.5-.2.9-.4,1.2-.7.5-.4.9-.9,1.2-1.5.3-.6.4-1.3.4-2.1s-.2-1.9-.7-2.6c-.5-.7-1.1-1.2-2-1.6-.9-.4-1.9-.5-3.1-.5h-5.7v15.6h2.9v-5.9h2.8l3,5.9h3.2v-.2l-3.5-6.5ZM107.6,6.5h2.7c.6,0,1.1,0,1.5.3.4.2.7.5.9.9.2.4.3.8.3,1.4s0,.9-.3,1.3c-.2.4-.5.7-.9.9-.4.2-.9.3-1.5.3h-2.8v-5.1Z"/>
  </g>
</svg>